<?xml version="1.0" encoding="UTF-8"?> <!-- Generator: Adobe Illustrator 27.7.0, SVG Export Plug-In . SVG Version: 6.00 Build 0) --> <svg xmlns="http://www.w3.org/2000/svg" xmlns:xlink="http://www.w3.org/1999/xlink" id="Layer_2_00000036212521186178809770000004837331360715208895_" x="0px" y="0px" viewBox="0 0 122.3 74.9" style="enable-background:new 0 0 122.3 74.9;" xml:space="preserve"> <style type="text/css"> .st0{fill:#A9957D;} </style> <g id="Layer_1-2"> <g> <g> <path class="st0" d="M12.6,56.4c20.2,0,36.6-14,52.5-27.5C81.3,15.1,98,0.9,118.8,0.9c1.2,0,2.3,0,3.5,0.1c-2.5-0.7-5-1-7.5-1 C99.5,0,86.5,9.9,75.6,19.2c-8.6,7.3-19,15.7-30.7,22.6C29.5,50.9,18.2,54.2,3,54.2c-1,0-2,0-3,0l0,0.4 C4.3,55.8,8.5,56.4,12.6,56.4L12.6,56.4z"></path> <path class="st0" d="M48.5,74.9c8,0,15.5-1.6,22.4-4.7c11.1-5,19.7-13,25-23c2.1-4,3.7-9.1,5.4-14.5c3.8-12,8.1-25.7,19.8-29.7 c0.2-0.1,0.3-0.3,0.2-0.5L121,2.2c-11.6,4-16.3,17-20.9,29.7c-3.3,9-6.6,18.3-12.5,24.3C77.5,66.4,63.1,72.5,49,72.5 c-2.9,0-5.7-0.2-8.5-0.7c-8.6-1.5-16-5.4-23.2-9.2c-4.4-2.3-9-4.8-13.8-6.6h0c-0.2,0-0.3,0.1-0.3,0.3 C15.7,68.2,32.3,74.9,48.5,74.9L48.5,74.9z"></path> <path class="st0" d="M68.6,54.1C76.3,35,85.3,16.9,106.5,5.4l-0.3-0.3C88.7,14.4,70.4,33,68.6,54.1L68.6,54.1z"></path> </g> </g> </g> </svg> 