<?xml version="1.0" encoding="UTF-8"?> <!-- Generator: Adobe Illustrator 27.7.0, SVG Export Plug-In . SVG Version: 6.00 Build 0) --> <svg xmlns="http://www.w3.org/2000/svg" xmlns:xlink="http://www.w3.org/1999/xlink" id="Layer_2_00000087387984558398272180000010305418464079583398_" x="0px" y="0px" viewBox="0 0 42.6 116.5" style="enable-background:new 0 0 42.6 116.5;" xml:space="preserve"> <style type="text/css"> .st0{fill:#A9957D;} </style> <g id="Layer_1-2"> <g> <g> <path class="st0" d="M14.8,115.7c0.1,0,0.1,0,0.1-0.1C-2.7,84.7-1.5,43.1,18.1,1.3c0.1-0.2,0.1-0.4,0-0.6 c-0.1-0.2-0.3-0.3-0.5-0.3s-0.4,0.1-0.6,0.3C-4.7,29-5.9,88.1,14.7,115.6L14.8,115.7L14.8,115.7z"></path> <path class="st0" d="M14.9,116.5c0.1,0,0.2,0,0.4-0.1c16.1-9.6,26.3-30.3,27.3-55.7c1-26.4-8.3-49.6-24.2-60.7 c14.5,15.3,22.3,36.9,21.3,59.2c-0.9,21.9-10.2,42.2-25.5,55.9c-0.1,0.1-0.4,0.3-0.2,0.8C14.2,116.2,14.5,116.5,14.9,116.5 L14.9,116.5L14.9,116.5z"></path> <path class="st0" d="M16,113.5c-5.3-23.9-5-45.9-3.1-66.4C8.8,72.7,9.8,95,16,113.5z"></path> </g> </g> </g> </svg> 