<?xml version="1.0" encoding="UTF-8"?> <!-- Generator: Adobe Illustrator 27.7.0, SVG Export Plug-In . SVG Version: 6.00 Build 0) --> <svg xmlns="http://www.w3.org/2000/svg" xmlns:xlink="http://www.w3.org/1999/xlink" id="Layer_2_00000091726911503473448460000017133415169851680175_" x="0px" y="0px" viewBox="0 0 116.1 87.9" style="enable-background:new 0 0 116.1 87.9;" xml:space="preserve"> <style type="text/css"> .st0{fill:#A9957D;} </style> <g id="Layer_1-2"> <g> <g> <path class="st0" d="M95.7,21c-8.5-4-17.2-6-24.3-7c-7.3-1-14.7-1-21.8-1.1c-17.1-0.1-33.3-0.2-48-12.5C1.5,0.3,1.3,0.3,1.1,0.3 c-0.4,0-0.7,0.2-0.8,0.5C0.2,1,0.2,1.3,0.5,1.5c12.4,12,28.3,13.6,42.2,13.6L54,15.1C68.5,15.1,82.6,15.7,95.7,21L95.7,21z"></path> <path class="st0" d="M67.1,50.7c16.7,0,31.7-6.1,42.6-17.3C95.8,42.8,81.1,47.6,66,47.6c-10.3,0-20.8-2.3-31-6.8 C18.4,33.5,8.2,21.2,2,0.7C1.8,0.1,1.4,0,1.1,0C0.7,0,0.4,0.2,0.2,0.4C0,0.6,0,0.9,0,1.3C6.5,29.5,35.3,50.7,67.1,50.7L67.1,50.7 z"></path> <path class="st0" d="M104.1,29.3C90.7,22.7,74.2,19,57.8,19c-4.2,0-8.5,0.2-12.5,0.8c-0.4,0-0.4,0.5-0.4,0.5 c1.5,0.1,2.9,0.1,4.2,0.1h1.2C68.4,20.4,84.8,23.1,104.1,29.3L104.1,29.3z"></path> <path class="st0" d="M83.2,87.9c0.1,0,0.2-0.1,0.3-0.1c0-20,10.2-39.9,28.7-56.2c-8.1,6.9-33.9,31.4-29.3,56.2L83.2,87.9z"></path> <path class="st0" d="M83.9,87.6c9.6,0,19.8-12.9,22.7-16.8c10.3-14.1,12.1-25.9,5.8-39.5l-0.4,0.1c6.2,14.1,2.7,28.3-10.3,42.8 c-4.1,4.5-8.6,7.3-13.4,10.2c-1.6,1-3.3,2-5,3.1L83.9,87.6L83.9,87.6z"></path> <path class="st0" d="M98.3,67.1c0.1,0,0.3,0,0.4-0.3c1.1-3.1,2.1-6.2,3-9.2c2.7-8.6,5.3-16.8,10.6-24.8l-0.3-0.3 c-6.7,9.2-14.3,22.5-14,34.3C98,66.9,98,67.1,98.3,67.1L98.3,67.1L98.3,67.1z"></path> </g> </g> </g> </svg> 