<?xml version="1.0" encoding="UTF-8"?> <!-- Generator: Adobe Illustrator 27.7.0, SVG Export Plug-In . SVG Version: 6.00 Build 0) --> <svg xmlns="http://www.w3.org/2000/svg" xmlns:xlink="http://www.w3.org/1999/xlink" id="Layer_2_00000176009918722911526660000015695230162810217616_" x="0px" y="0px" viewBox="0 0 84.4 54.2" style="enable-background:new 0 0 84.4 54.2;" xml:space="preserve"> <style type="text/css"> .st0{fill:#A9957D;} </style> <g id="Layer_1-2"> <g> <g> <path class="st0" d="M83.3,51.3c-6.9-23.8-26.4-29.5-47.1-35.5C23.6,12.1,10.5,8.3,0.4,0L0.1,0.3c8.6,10.4,21.9,13.4,34.7,16.2 c2.9,0.6,5.7,1.3,8.5,2C61.8,23.2,75.2,34.3,83.3,51.3L83.3,51.3z"></path> <path class="st0" d="M49.3,54.2c4.3,0,8.7-0.5,12.9-1c4.2-0.5,8.6-1,13-1c2.9,0,5.5,0.2,8,0.7c0,0,0.1,0,0.1,0 c0.8,0,1-0.4,1.1-0.7c0-0.2,0.1-0.8-0.7-1.1C80.1,49.7,76,49,71.3,49c-4.4,0-8.9,0.6-13.3,1.1c-4.5,0.6-9.2,1.2-13.8,1.2 c-4,0-7.5-0.4-10.8-1.3C19.2,46,9.6,38.7,4.9,28.4C2.3,22.5,1.5,16.1,0.7,10C0.5,8.4,0.3,6.7,0.1,5c-0.9,17,5.6,31.5,17.8,39.5 c7.3,4.7,15.9,7.9,24.7,9.2C44.7,54,46.9,54.2,49.3,54.2L49.3,54.2z"></path> <path class="st0" d="M80.2,47c-9.8-13-24.3-16.7-39.6-20.7c-5.9-1.5-11.9-3.1-17.7-5.3l-0.1,0.5c6.5,4.1,14.1,5.6,21.5,7 c2.5,0.5,4.9,0.9,7.4,1.5C63.6,32.8,71.6,39,80.2,47L80.2,47z"></path> </g> </g> </g> </svg> 