<?xml version="1.0" encoding="UTF-8"?> <!-- Generator: Adobe Illustrator 27.7.0, SVG Export Plug-In . SVG Version: 6.00 Build 0) --> <svg xmlns="http://www.w3.org/2000/svg" xmlns:xlink="http://www.w3.org/1999/xlink" id="Layer_2_00000124879881524134830190000013660075113924717696_" x="0px" y="0px" viewBox="0 0 56.5 147" style="enable-background:new 0 0 56.5 147;" xml:space="preserve"> <style type="text/css"> .st0{fill:#A9957D;} </style> <g id="Layer_1-2"> <g> <g> <path class="st0" d="M50.7,139.6c-0.2,1.1-0.3,2.1-0.5,3.2C50.4,141.8,50.5,140.7,50.7,139.6z M40.4,65l-0.7-0.9 C25.1,44.3,11.3,25.5,6.8,0.9c0-0.2,0-0.4,0.1-0.6C7.1,0.1,7.4,0,7.6,0C7.8,0,8,0.1,8.1,0.5C12.9,18,18.3,30.9,25.8,42.4 c3.2,5,6.9,9.8,10.5,14.5c4.5,5.9,9.2,12,13,18.6c5.6,9.8,7.3,18.7,7.2,27.7C55.3,87.3,47.4,74.6,40.4,65L40.4,65z"></path> <path class="st0" d="M50,147c0.2,0,0.4-0.1,0.5-0.2c-1.3-13.6-10.4-23.5-19.2-33c-5.7-6.2-11.6-12.5-15.4-19.8 C9.4,81.7,1.9,65.2,0.8,46.7C0.1,34.2,2.4,21.9,4.9,9.9C-2.4,34-1.5,57.4,7.5,79.7c4.4,10.8,8.9,21.2,16.2,29.7 c1.8,2.2,3.7,4.2,5.5,6.2c8.1,9.2,15.8,17.8,20.2,30.9C49.4,146.9,49.7,147,50,147L50,147L50,147z"></path> <path class="st0" d="M50,141.6c2.3-13.6,0.1-30.8-5.9-45.8c-3.8-9.6-10.2-17.7-16.4-25.5c-2.5-3.2-5.1-6.5-7.5-9.9 c2.3,3.4,4.9,6.6,7.4,10c3.7,4.8,7.6,9.8,10.8,15.2c9.6,16.3,10.4,33.6,11.2,52l0.2,3.9L50,141.6L50,141.6L50,141.6z"></path> </g> </g> </g> </svg> 