<?xml version="1.0" encoding="UTF-8"?> <svg xmlns="http://www.w3.org/2000/svg" id="Layer_2" data-name="Layer 2" viewBox="0 0 103.16 136.42"><defs><style> .cls-1 { fill: #fff; } </style></defs><g id="Layer_1-2" data-name="Layer 1"><g><path class="cls-1" d="m32.31,37.95s3.45-1.75,3.47-1.81,2.43-3.27,2.43-3.27c.06-.44.06-.91.2-1.33.56-1.72,1.17-3.42,1.76-5.13,1.23-3.57,2.45-7.14,3.68-10.7,1.04-3.03,2.08-6.05,3.15-9.17-4.87-2.16-9.65-4.32-14.48-6.39-.54-.23-1.39-.17-1.93.1-2.5,1.25-4.93,2.62-7.4,3.94-6.79,3.63-13.59,7.25-20.36,10.92-.45.24-.89.81-.99,1.3-.32,1.49-.49,3.02-.68,4.54-.31,2.4-.61,4.81-.87,7.21-.14,1.33-.21,2.66-.3,3.92,8.95,2.41,17.74,4.78,26.71,7.19l5.6-1.31Zm-.52-1.79c-.32.2-1.06.07-1.41-.18-5.02-3.65-10-7.35-15.2-11.2,3.53-1.84,6.9-3.58,10.25-5.34,1.84-.97,3.66-1.98,5.5-2.94,1.01-.52,1.37-.29,1.46.85.02.25,0,.49,0,.74.12,3.37.23,6.73.37,10.09.09,2.17.14,4.34.34,6.5.1,1.09-.79,1.15-1.32,1.47Zm10.29-21.35c-1.3,3.84-2.64,7.66-3.96,11.5-.87,2.54-1.71,5.09-2.57,7.63-.04.13-.13.24-.31.59-.11-.36-.17-.49-.18-.63-.12-2.54-.21-5.09-.35-7.63-.18-3.48-.37-6.95-.62-10.42-.06-.87.24-1.29,1.02-1.66,2.23-1.07,4.4-2.28,6.62-3.39.33-.17.78-.11,1.58-.2-.45,1.56-.8,2.9-1.24,4.21Zm-14.63-10.69c.95-.51,1.93-.96,2.84-1.52.87-.53,1.7-.66,2.63-.24,3.48,1.56,6.97,3.11,10.45,4.67.11.05.2.15.31.24-3.27,1.76-6.48,3.5-9.72,5.21-.26.14-.71.17-.94.03-3.12-1.86-6.21-3.75-9.31-5.65-.14-.08-.25-.22-.51-.45,1.47-.79,2.86-1.54,4.25-2.29Zm-12.97,11.88c.08-1.43.12-2.85.26-4.27.04-.37.28-.85.58-1.02,1.74-1,3.51-1.95,5.29-2.86.25-.13.72-.06.99.1,3.19,1.89,6.36,3.81,9.8,5.88-5.88,3.13-11.52,6.12-17.33,9.21.15-2.5.28-4.77.41-7.04ZM2.26,29.07c.46-4.06.9-7.94,1.37-11.82.03-.24.21-.55.41-.66,2.72-1.46,5.44-2.9,8.18-4.33.1-.05.24,0,.54-.01-.15,1.78-.32,3.47-.42,5.16-.11,1.96-.12,3.93-.25,5.89-.03.4-.28.95-.6,1.13-2.65,1.47-5.34,2.87-8.03,4.28-.33.17-.72.22-1.19.36Zm1.47,1.92c1.55-.87,2.79-1.57,4.04-2.25,1.3-.71,2.62-1.37,3.91-2.08,1.03-.56,1.94-.67,2.98.12,3.63,2.74,7.32,5.4,10.98,8.09,1.04.77,2.09,1.52,3.13,2.31.17.13.26.37.54.79-8.58-2.34-16.92-4.61-25.58-6.97Z"></path><path class="cls-1" d="m103.16,117.18c-31.86,37.41-91.55,16.76-95.15-31.84C5.66,44.06,48.04,14.85,85.51,32.9c4.76,2.33,9.06,5.45,12.93,8.98-2.14-1.52-4.13-3.23-6.44-4.45-.57-.34-1.96-1.18-2.51-1.51-.52-.26-3.79-1.8-4.4-2.09C42.54,16.31-.53,56.24,14.91,99.89c14.04,36.92,61.16,45.63,88.25,17.29h0Z"></path></g></g></svg> 